<svg xmlns="http://www.w3.org/2000/svg" width="196" height="156" fill="none" viewBox="0 0 196 156"><circle cx="60" cy="89" r="60" fill="#F90"/><path fill="#000" fill-rule="evenodd" d="M87.884 26.865a1 1 0 0 1 1.366-.366l58.5 33.734a1 1 0 0 1-1 1.733l-58.5-33.735a1 1 0 0 1-.366-1.366z" clip-rule="evenodd"/><path fill="#000" fill-rule="evenodd" d="M111.002 13.888a14 14 0 0 1 13.996 0l.002.001 45.5 26a14.004 14.004 0 0 1 7 12.11v52.002a13.997 13.997 0 0 1-7 12.11l-.004.002L125 142.111l-.001.001a14.004 14.004 0 0 1-13.998 0l-.001-.001-45.496-25.998-.004-.002a13.992 13.992 0 0 1-7-12.11V51.999a14 14 0 0 1 7-12.11l.004-.002L111 13.889l.002-.001zm6.998.125a12 12 0 0 0-6 1.608l-.004.002L66.5 41.621l-.002.001A12 12 0 0 0 60.5 52.001V104a11.998 11.998 0 0 0 5.998 10.378l.002.001 45.5 26a12.003 12.003 0 0 0 12 0l.004-.002 45.496-25.998.002-.001a12.001 12.001 0 0 0 5.998-10.379V52.001a12 12 0 0 0-5.998-10.379h-.002l-45.496-25.999-.004-.002a12 12 0 0 0-6-1.608z" clip-rule="evenodd"/><path fill="#000" fill-rule="evenodd" d="M60.39 44.74a1 1 0 0 1 1.366-.366L118 76.91l56.244-32.535a1 1 0 0 1 1.002 1.731L118.501 78.93a.997.997 0 0 1-1.002 0L60.754 46.105a1 1 0 0 1-.364-1.366z" clip-rule="evenodd"/><path fill="#000" fill-rule="evenodd" d="M118 77a1 1 0 0 1 1 1v65.52a1 1 0 0 1-2 0V78a1 1 0 0 1 1-1z" clip-rule="evenodd"/></svg>