<svg width="128" height="128" viewBox="0 0 128 128" fill="none" xmlns="http://www.w3.org/2000/svg">
<path fill-rule="evenodd" clip-rule="evenodd" d="M64 2.66675C61.2594 2.66675 58.6311 3.75544 56.6932 5.69331C54.7553 7.63119 53.6666 10.2595 53.6666 13.0001V13.9634L53.6666 13.9674C53.6586 15.9859 53.0605 17.958 51.946 19.6409C50.8315 21.3238 49.2492 22.6441 47.3939 23.4392C47.2694 23.4926 47.1354 23.5201 47 23.5201H46.7519C44.9123 24.2865 42.8888 24.5062 40.9249 24.1501C38.89 23.7811 37.0124 22.811 35.534 21.3649L35.5261 21.3572L35.1862 21.0172C34.2265 20.0564 33.0865 19.2939 31.832 18.7738C30.5776 18.2538 29.2329 17.9862 27.875 17.9862C26.517 17.9862 25.1724 18.2538 23.9179 18.7738C22.6635 19.2939 21.5238 20.056 20.5641 21.0168L20.5633 21.0176C19.6026 21.9773 18.8404 23.1169 18.3204 24.3714C17.8004 25.6258 17.5327 26.9705 17.5327 28.3284C17.5327 29.6864 17.8004 31.031 18.3204 32.2855C18.8404 33.5399 19.6026 34.6796 20.5633 35.6392L20.9115 35.9874C22.3576 37.4658 23.3277 39.3435 23.6966 41.3783C24.0637 43.4028 23.819 45.4905 22.9942 47.3749C22.2752 49.3115 20.993 50.989 19.3124 52.191C17.6232 53.3992 15.6096 54.0712 13.5333 54.1198L13.51 54.1201H13C10.2594 54.1201 7.63107 55.2088 5.69319 57.1466C3.75531 59.0845 2.66663 61.7128 2.66663 64.4534C2.66663 67.194 3.75531 69.8223 5.69319 71.7602C7.63107 73.6981 10.2594 74.7868 13 74.7868H13.9673C15.9858 74.7948 17.9578 75.3929 19.6407 76.5074C21.3222 77.6209 22.6416 79.2015 23.437 81.0546C24.2703 82.9453 24.5186 85.0421 24.1499 87.0752C23.781 89.11 22.8109 90.9877 21.3648 92.466L21.3571 92.4739L21.0171 92.8139C20.0563 93.7736 19.2937 94.9136 18.7737 96.168C18.2537 97.4225 17.986 98.7671 17.986 100.125C17.986 101.483 18.2537 102.828 18.7737 104.082C19.2937 105.337 20.0559 106.476 21.0167 107.436L21.0175 107.437C21.9771 108.397 23.1168 109.16 24.3712 109.68C25.6257 110.2 26.9703 110.467 28.3283 110.467C29.6863 110.467 31.0309 110.2 32.2853 109.68C33.5398 109.16 34.6794 108.397 35.6391 107.437L35.9873 107.089C37.4657 105.642 39.3434 104.672 41.3782 104.303C43.4027 103.936 45.4904 104.181 47.3748 105.006C49.3114 105.725 50.9888 107.007 52.1909 108.688C53.3991 110.377 54.0711 112.39 54.1197 114.467L54.12 114.49V115C54.12 117.741 55.2086 120.369 57.1465 122.307C59.0844 124.245 61.7127 125.333 64.4533 125.333C67.1939 125.333 69.8222 124.245 71.7601 122.307C73.6979 120.369 74.7866 117.741 74.7866 115V114.037L74.7866 114.033C74.7947 112.014 75.3928 110.042 76.5073 108.359C77.6207 106.678 79.201 105.359 81.054 104.563C82.9448 103.73 85.0418 103.481 87.075 103.85C89.1099 104.219 90.9875 105.189 92.4659 106.635L92.4738 106.643L92.8137 106.983C93.7734 107.944 94.9135 108.706 96.1679 109.226C97.4224 109.746 98.767 110.014 100.125 110.014C101.483 110.014 102.828 109.746 104.082 109.226C105.336 108.706 106.476 107.944 107.436 106.983L107.437 106.983C108.397 106.023 109.16 104.883 109.68 103.629C110.2 102.374 110.467 101.03 110.467 99.6718C110.467 98.3138 110.2 96.9692 109.68 95.7147C109.16 94.4603 108.397 93.3206 107.437 92.3609L107.088 92.0127C105.642 90.5344 104.672 88.6567 104.303 86.6218C103.935 84.5886 104.183 82.4916 105.016 80.6008C105.812 78.7478 107.131 77.1675 108.813 76.0541C110.495 74.9396 112.467 74.3415 114.486 74.3334L114.49 74.3334L115 74.3334C117.741 74.3334 120.369 73.2447 122.307 71.3069C124.245 69.369 125.333 66.7407 125.333 64.0001C125.333 61.2595 124.245 58.6312 122.307 56.6933C120.369 54.7554 117.741 53.6668 115 53.6668H114.037L114.033 53.6667C112.014 53.6587 110.042 53.0606 108.359 51.9461C106.676 50.8316 105.356 49.2493 104.561 47.394C104.507 47.2695 104.48 47.1355 104.48 47.0001V46.752C103.713 44.9124 103.494 42.889 103.85 40.925C104.219 38.8902 105.189 37.0125 106.635 35.5342L106.643 35.5263L106.983 35.1863C107.944 34.2266 108.706 33.0866 109.226 31.8321C109.746 30.5777 110.014 29.233 110.014 27.8751C110.014 26.5171 109.746 25.1725 109.226 23.918C108.706 22.6636 107.944 21.5239 106.983 20.5642L106.982 20.5635C106.023 19.6027 104.883 18.8405 103.629 18.3205C102.374 17.8005 101.03 17.5328 99.6716 17.5328C98.3137 17.5328 96.969 17.8005 95.7146 18.3205C94.4601 18.8405 93.3205 19.6027 92.3608 20.5635L92.0126 20.9117C90.5342 22.3577 88.6565 23.3278 86.6217 23.6967C84.5886 24.0654 82.4918 23.817 80.6012 22.9838C78.748 22.1884 77.1675 20.869 76.0539 19.1875C74.9394 17.5046 74.3413 15.5325 74.3333 13.5141L74.3333 13.5101V13.0001C74.3333 10.2595 73.2446 7.63119 71.3067 5.69331C69.3689 3.75544 66.7405 2.66675 64 2.66675ZM55.279 4.2791C57.5919 1.96615 60.729 0.666748 64 0.666748C67.271 0.666748 70.408 1.96615 72.7209 4.2791C75.0339 6.59205 76.3333 9.72908 76.3333 13.0001L76.3333 13.5061C76.3333 13.5067 76.3333 13.5073 76.3333 13.508C76.3401 15.1357 76.8226 16.726 77.7214 18.0832C78.6206 19.4409 79.8971 20.5061 81.3939 21.1476L81.4037 21.1518C82.9301 21.8255 84.6232 22.0265 86.2649 21.7288C87.9048 21.4315 89.4182 20.6502 90.6103 19.4855C90.6115 19.4843 90.6128 19.4831 90.614 19.4819L90.9458 19.15C90.9459 19.1499 90.9457 19.1502 90.9458 19.15C92.0911 18.0035 93.4516 17.0936 94.9487 16.473C96.4459 15.8523 98.0508 15.5328 99.6716 15.5328C101.292 15.5328 102.897 15.8523 104.395 16.473C105.891 17.0935 107.251 18.0029 108.397 19.1492C109.543 20.2947 110.453 21.6549 111.074 23.1522C111.694 24.6494 112.014 26.2543 112.014 27.8751C112.014 29.4959 111.694 31.1008 111.074 32.598C110.453 34.0953 109.543 35.4555 108.397 36.6009L108.065 36.9327C108.064 36.934 108.062 36.9353 108.061 36.9366C106.896 38.1287 106.115 39.642 105.818 41.2818C105.52 42.9235 105.721 44.6166 106.395 46.143C106.451 46.2702 106.48 46.4077 106.48 46.5467V46.7888C107.128 48.2068 108.161 49.4162 109.463 50.2786C110.821 51.1774 112.411 51.6599 114.039 51.6668H115C118.271 51.6668 121.408 52.9662 123.721 55.2791C126.034 57.5921 127.333 60.7291 127.333 64.0001C127.333 67.2711 126.034 70.4081 123.721 72.7211C121.408 75.034 118.271 76.3334 115 76.3334L114.494 76.3334C114.493 76.3334 114.493 76.3334 114.492 76.3334C112.864 76.3403 111.274 76.8228 109.917 77.7216C108.559 78.6207 107.494 79.8972 106.852 81.394L106.848 81.4039C106.175 82.9302 105.974 84.6234 106.271 86.265C106.569 87.9048 107.35 89.418 108.514 90.6101C108.515 90.6114 108.517 90.6128 108.518 90.6142L108.85 90.9459C108.85 90.946 108.85 90.9458 108.85 90.9459C109.997 92.0913 110.906 93.4518 111.527 94.9488C112.148 96.4461 112.467 98.051 112.467 99.6718C112.467 101.293 112.148 102.897 111.527 104.395C110.906 105.892 109.997 107.252 108.85 108.397C107.705 109.544 106.345 110.453 104.848 111.074C103.351 111.695 101.746 112.014 100.125 112.014C98.5042 112.014 96.8993 111.695 95.402 111.074C93.9049 110.453 92.5449 109.544 91.3995 108.397C91.3994 108.397 91.3996 108.397 91.3995 108.397L91.0674 108.065C91.066 108.064 91.0646 108.062 91.0633 108.061C89.8712 106.897 88.358 106.115 86.7182 105.818C85.0766 105.52 83.3834 105.721 81.8571 106.395L81.8472 106.399C80.3505 107.041 79.0739 108.106 78.1748 109.464C77.276 110.821 76.7935 112.411 76.7866 114.039C76.7866 114.039 76.7866 114.04 76.7866 114.041L76.7866 115C76.7866 118.271 75.4872 121.408 73.1743 123.721C70.8613 126.034 67.7243 127.333 64.4533 127.333C61.1823 127.333 58.0453 126.034 55.7323 123.721C53.4194 121.408 52.12 118.271 52.12 115V114.502C52.0786 112.831 51.5366 111.211 50.5641 109.851C49.5894 108.488 48.2273 107.45 46.6548 106.872C46.6441 106.868 46.6336 106.864 46.6231 106.86C46.6141 106.856 46.6051 106.852 46.5962 106.848C45.0698 106.175 43.3767 105.974 41.735 106.271C40.0952 106.569 38.5819 107.35 37.3898 108.514C37.3885 108.516 37.3872 108.517 37.3859 108.518L37.0541 108.85C35.9087 109.997 34.5485 110.907 33.0512 111.527C31.554 112.148 29.9491 112.467 28.3283 112.467C26.7075 112.467 25.1026 112.148 23.6054 111.527C22.1081 110.907 20.7479 109.997 19.6025 108.85C18.4561 107.705 17.5467 106.345 16.9262 104.848C16.3055 103.351 15.986 101.746 15.986 100.125C15.986 98.5043 16.3055 96.8994 16.9262 95.4022C17.5468 93.9051 18.4563 92.545 19.6029 91.3996C19.603 91.3995 19.6027 91.3998 19.6029 91.3996L19.9351 91.0675C19.9363 91.0662 19.9376 91.0649 19.9388 91.0637C21.1034 89.8716 21.8847 88.3582 22.182 86.7183C22.4797 85.0767 22.2787 83.3835 21.6051 81.8572L21.6008 81.8474C20.9593 80.3506 19.8942 79.074 18.5364 78.1749C17.1793 77.2761 15.589 76.7936 13.9612 76.7868C13.9605 76.7868 13.9599 76.7867 13.9593 76.7867L13 76.7868C9.72896 76.7868 6.59192 75.4874 4.27898 73.1744C1.96603 70.8615 0.666626 67.7244 0.666626 64.4534C0.666626 61.1824 1.96603 58.0454 4.27898 55.7324C6.59192 53.4195 9.72896 52.1201 13 52.1201H13.498C15.169 52.0787 16.7892 51.5368 18.1489 50.5643C19.5117 49.5896 20.5497 48.2274 21.1281 46.6549C21.1354 46.6351 21.1433 46.6156 21.1518 46.5963C21.8254 45.07 22.0264 43.3768 21.7287 41.7352C21.4314 40.0953 20.6501 38.5819 19.4855 37.3898L19.1499 37.0542C18.0032 35.9088 17.0935 34.5486 16.4728 33.0513C15.8522 31.5541 15.5327 29.9492 15.5327 28.3284C15.5327 26.7076 15.8522 25.1027 16.4728 23.6055C17.0935 22.1082 18.0032 20.748 19.1499 19.6026C20.2952 18.4562 21.6551 17.5468 23.152 16.9263C24.6493 16.3056 26.2542 15.9862 27.875 15.9862C29.4957 15.9862 31.1006 16.3056 32.5979 16.9263C34.095 17.5469 35.455 18.4564 36.6004 19.603C36.6005 19.6031 36.6003 19.6028 36.6004 19.603L36.9365 19.939C38.1285 21.1036 39.6419 21.8848 41.2817 22.1822C42.9233 22.4798 44.6165 22.2789 46.1429 21.6052C46.2701 21.5491 46.4076 21.5201 46.5466 21.5201H46.7886C48.2066 20.8718 49.4161 19.8387 50.2785 18.5366C51.1773 17.1794 51.6598 15.5891 51.6666 13.9613V13.0001C51.6666 9.72908 52.966 6.59205 55.279 4.2791Z" fill="black"/>
</svg>
