<svg xmlns="http://www.w3.org/2000/svg" width="189" height="158" fill="none" viewBox="0 0 189 158"><circle cx="60" cy="98" r="59.5" fill="#F90" stroke="#F90"/><path fill="#000" fill-rule="evenodd" d="M121 52c-8.837 0-16 7.163-16 16s7.163 16 16 16 16-7.163 16-16-7.163-16-16-16zm-18 16c0-9.941 8.059-18 18-18s18 8.059 18 18-8.059 18-18 18-18-8.059-18-18z" clip-rule="evenodd"/><path fill="#000" fill-rule="evenodd" d="M121 6.667A10.333 10.333 0 0 0 110.667 17v.967a10.354 10.354 0 0 1-6.273 9.472.993.993 0 0 1-.394.081h-.248a10.351 10.351 0 0 1-11.218-2.155l-.008-.008-.34-.34a10.337 10.337 0 0 0-11.268-2.243 10.335 10.335 0 0 0-3.354 2.243 10.333 10.333 0 0 0 0 14.622l.348.348a10.35 10.35 0 0 1 2.082 11.388 10.35 10.35 0 0 1-9.46 6.745H70a10.334 10.334 0 0 0 0 20.667h.967a10.35 10.35 0 0 1 9.47 6.268 10.35 10.35 0 0 1-2.072 11.411l-.008.008-.34.34a10.336 10.336 0 0 0 0 14.622v.001a10.344 10.344 0 0 0 7.311 3.03 10.332 10.332 0 0 0 7.311-3.03l.348-.348a10.346 10.346 0 0 1 11.388-2.083 10.35 10.35 0 0 1 6.745 9.461V119a10.333 10.333 0 0 0 20.667 0v-.967a10.354 10.354 0 0 1 6.267-9.47 10.35 10.35 0 0 1 11.412 2.072l.008.008.34.34a10.332 10.332 0 0 0 14.622 0h.001a10.335 10.335 0 0 0 0-14.622l-.349-.348a10.35 10.35 0 0 1-2.072-11.412 10.351 10.351 0 0 1 9.47-6.268H172a10.334 10.334 0 1 0 0-20.666h-.967a10.35 10.35 0 0 1-9.472-6.273.989.989 0 0 1-.081-.394v-.248a10.346 10.346 0 0 1 2.155-11.218l.008-.008.34-.34a10.33 10.33 0 0 0 2.243-11.268 10.33 10.33 0 0 0-2.243-3.354h-.001a10.327 10.327 0 0 0-11.267-2.244 10.32 10.32 0 0 0-3.354 2.244l-.348.348a10.352 10.352 0 0 1-11.412 2.072 10.347 10.347 0 0 1-6.268-9.47V17A10.332 10.332 0 0 0 121 6.667zm-8.721 1.612A12.333 12.333 0 0 1 133.333 17v.508a8.355 8.355 0 0 0 5.061 7.64l.01.004a8.348 8.348 0 0 0 9.206-1.667c.002 0 .003-.002.004-.003l.332-.332a12.334 12.334 0 0 1 17.451 0 12.345 12.345 0 0 1 2.677 13.449 12.349 12.349 0 0 1-2.677 4.002l-.332.332-.004.004a8.344 8.344 0 0 0-1.666 9.206c.056.127.085.265.085.404v.242a8.348 8.348 0 0 0 7.559 4.878H172a12.334 12.334 0 0 1 0 24.666h-.508a8.349 8.349 0 0 0-7.64 5.061l-.004.01a8.36 8.36 0 0 0-.577 4.861 8.358 8.358 0 0 0 2.243 4.345l.004.004.332.332a12.336 12.336 0 0 1-4.002 20.128 12.326 12.326 0 0 1-9.446 0 12.328 12.328 0 0 1-4.002-2.677c-.001 0 0 0 0 0l-.333-.332-.004-.004a8.35 8.35 0 0 0-9.206-1.666l-.01.004a8.35 8.35 0 0 0-5.06 7.64V119a12.334 12.334 0 0 1-24.667 0v-.498a8.345 8.345 0 0 0-5.465-7.63l-.032-.012-.027-.012a8.36 8.36 0 0 0-4.861-.577 8.359 8.359 0 0 0-4.345 2.243l-.004.004-.332.332a12.317 12.317 0 0 1-8.726 3.617 12.327 12.327 0 0 1-8.725-3.617 12.328 12.328 0 0 1-2.677-13.448 12.333 12.333 0 0 1 2.677-4.002l.332-.333.004-.003a8.35 8.35 0 0 0 1.666-9.207l-.004-.01a8.35 8.35 0 0 0-7.64-5.06H70a12.333 12.333 0 1 1 0-24.667h.498a8.35 8.35 0 0 0 7.654-5.524 8.35 8.35 0 0 0-1.666-9.206l-.336-.336a12.333 12.333 0 0 1 0-17.451 12.332 12.332 0 0 1 17.45 0l.337.336a8.35 8.35 0 0 0 9.206 1.666c.127-.056.265-.085.404-.085h.242a8.346 8.346 0 0 0 4.878-7.559v-.96c0-3.272 1.299-6.409 3.612-8.722z" clip-rule="evenodd"/></svg>